<svg xmlns="http://www.w3.org/2000/svg" viewBox="0 0 24 24" width="24" height="24" fill="currentColor" class="h-4 w-4 hidden group-hover:block text-label-2 dark:text-dark-label-2 hover:text-label-1 dark:hover:text-dark-label-1">
    <path fill-rule="evenodd" d="M11.3 8.3H19a3 3 0 013 3V19a3 3 0 01-3 3h-7.7a3 3 0 01-3-3v-7.7a3 3 0 013-3zm0 2a1 1 0 00-1 1V19a1 1 0 001 1H19a1 1 0 001-1v-7.7a1 1 0 00-1-1h-7.7zm-5.6 3.4a1 1 0 110 2h-.9A2.8 2.8 0 012 12.9V4.8A2.8 2.8 0 014.8 2h8.1a2.8 2.8 0 012.8 2.8v.9a1 1 0 11-2 0v-.9a.8.8 0 00-.8-.8H4.8a.8.8 0 00-.8.8v8.1a.8.8 0 00.8.8h.9z" clip-rule="evenodd"></path>
</svg>